<?xml version="1.0" standalone="no"?>
<!DOCTYPE svg PUBLIC "-//W3C//DTD SVG 20010904//EN"
 "http://www.w3.org/TR/2001/REC-SVG-20010904/DTD/svg10.dtd">
<svg version="1.0" xmlns="http://www.w3.org/2000/svg"
 width="236.000000pt" height="236.000000pt" viewBox="0 0 236.000000 236.000000"
 preserveAspectRatio="xMidYMid meet">
<metadata>
Created by potrace 1.15, written by Peter Selinger 2001-2017
</metadata>
<g transform="translate(0.000000,236.000000) scale(0.100000,-0.100000)"
fill="#000000" stroke="none">
<path d="M1098 2063 l-3 -158 -157 -3 -157 -3 -3 -77 -3 -77 -75 0 -75 0 -3
78 -3 77 -79 0 -80 0 0 -80 0 -79 78 -3 77 -3 0 -75 0 -75 -77 -3 -77 -3 -3
-157 -3 -157 -157 -3 -158 -3 0 -79 0 -79 157 -3 158 -3 3 -157 3 -157 77 -3
77 -3 0 -75 0 -75 -77 -3 -78 -3 0 -79 0 -80 80 0 79 0 3 78 3 77 75 0 75 0 3
-77 3 -77 157 -3 157 -3 3 -157 3 -158 79 0 79 0 3 158 3 157 157 3 157 3 3
77 3 77 75 0 75 0 3 -77 3 -78 79 0 80 0 0 80 0 79 -77 3 -78 3 0 75 0 75 77
3 77 3 3 157 3 157 158 3 157 3 0 79 0 79 -157 3 -158 3 -3 157 -3 157 -77 3
-77 3 0 75 0 75 78 3 77 3 0 79 0 80 -80 0 -79 0 -3 -77 -3 -78 -75 0 -75 0
-3 77 -3 77 -157 3 -157 3 -3 158 -3 157 -79 0 -79 0 -3 -157z m2 -643 l0
-160 -160 0 -160 0 0 160 0 160 160 0 160 0 0 -160z"/>
</g>
</svg>
