<?xml version="1.0" standalone="no"?>
<!DOCTYPE svg PUBLIC "-//W3C//DTD SVG 20010904//EN"
 "http://www.w3.org/TR/2001/REC-SVG-20010904/DTD/svg10.dtd">
<svg version="1.0" xmlns="http://www.w3.org/2000/svg"
 width="306.000000pt" height="336.000000pt" viewBox="0 0 306.000000 336.000000"
 preserveAspectRatio="xMidYMid meet">
<metadata>
Created by potrace 1.15, written by Peter Selinger 2001-2017
</metadata>
<g transform="translate(0.000000,336.000000) scale(0.100000,-0.100000)"
fill="#2E8B57" stroke="black">
<path stroke-width="2" d="M1255 2957 c-209 -133 -415 -265 -458 -292 -43 -28 -151 -96 -240
-153 -89 -56 -161 -105 -160 -109 0 -3 55 -40 122 -82 216 -136 684 -434 784
-499 89 -58 97 -66 97 -95 0 -18 1 -211 3 -430 l2 -397 -227 0 -228 0 0 -150
0 -150 -255 0 -255 0 2 -217 3 -218 1085 0 1085 0 3 217 2 218 -255 0 -255 0
0 150 0 150 -227 0 -228 0 0 353 c-1 1156 -6 1947 -12 1947 -5 0 -179 -110
-388 -243z"/>
</g>
</svg>
